<?xml version="1.0" standalone="no"?>
<!DOCTYPE svg PUBLIC "-//W3C//DTD SVG 20010904//EN"
 "http://www.w3.org/TR/2001/REC-SVG-20010904/DTD/svg10.dtd">
<svg version="1.0" xmlns="http://www.w3.org/2000/svg"
 width="112.000000pt" height="112.000000pt" viewBox="0 0 112.000000 112.000000"
 preserveAspectRatio="xMidYMid meet">

<g transform="translate(0.000000,112.000000) scale(0.100000,-0.100000)"
fill="#000000" stroke="none">
<path d="M412 1065 c-164 -53 -285 -168 -349 -333 -23 -57 -27 -83 -27 -177
-1 -97 2 -119 27 -185 57 -153 175 -272 327 -327 65 -24 89 -28 185 -28 99 1
118 4 185 31 42 17 101 49 132 72 34 25 68 42 85 42 51 1 89 50 79 102 -4 21
3 54 21 102 24 63 27 85 27 191 0 105 -3 127 -25 180 -52 122 -114 200 -214
265 -137 90 -304 114 -453 65z m96 -147 c7 -7 12 -24 12 -40 0 -15 7 -31 15
-36 13 -7 15 -24 13 -83 l-3 -74 -80 0 -80 0 -2 72 c-2 52 2 75 12 83 8 7 15
23 15 36 0 12 7 30 16 38 18 19 65 21 82 4z m-138 -153 c0 -18 -5 -25 -20 -25
-17 0 -20 -7 -20 -40 0 -34 3 -40 21 -40 16 0 20 -5 17 -27 -2 -17 -9 -28 -18
-28 -12 0 -16 -19 -18 -102 -3 -98 -2 -103 18 -103 16 0 20 -6 20 -30 0 -24
-4 -30 -21 -30 -16 0 -20 -5 -17 -27 l3 -28 233 -3 232 -2 0 230 0 230 -120 0
c-112 0 -120 1 -120 19 0 18 9 20 108 23 59 2 122 2 140 0 l32 -3 0 -270 0
-269 -275 0 -275 0 0 50 c0 38 -4 50 -15 50 -20 0 -20 49 0 56 22 9 22 202 0
210 -8 4 -15 17 -15 30 0 15 6 24 15 24 12 0 15 13 15 59 l0 60 38 4 c20 2 38
4 40 5 1 1 2 -9 2 -23z m320 -207 c0 -20 1 -20 18 -5 24 22 37 9 15 -15 -15
-17 -15 -18 5 -18 12 0 22 -4 22 -10 0 -5 -10 -10 -22 -10 -20 0 -21 -1 -3
-20 14 -16 15 -20 4 -20 -8 0 -20 5 -27 12 -9 9 -12 7 -12 -10 0 -12 -4 -22
-10 -22 -5 0 -10 10 -10 22 0 17 -3 19 -12 10 -7 -7 -19 -12 -27 -12 -11 0
-10 4 4 20 18 19 17 20 -3 20 -12 0 -22 5 -22 10 0 6 10 10 22 10 20 0 20 1 5
18 -10 10 -14 22 -10 25 3 4 15 0 25 -10 17 -15 18 -15 18 5 0 12 5 22 10 22
6 0 10 -10 10 -22z m315 -313 c0 -27 -3 -30 -30 -30 -21 0 -31 5 -33 18 -6 33
6 49 35 45 24 -3 28 -8 28 -33z"/>
<path d="M440 889 c-17 -30 -5 -49 30 -49 25 0 30 4 30 23 0 45 -41 63 -60 26z"/>
<path d="M400 810 c0 -6 28 -10 64 -10 36 0 68 5 71 10 4 6 -20 10 -64 10 -41
0 -71 -4 -71 -10z"/>
<path d="M454 744 c3 -9 6 -20 6 -25 0 -5 5 -9 10 -9 6 0 10 11 10 25 0 16 -6
25 -16 25 -11 0 -14 -5 -10 -16z"/>
<path d="M670 510 c0 -5 5 -10 10 -10 6 0 10 5 10 10 0 6 -4 10 -10 10 -5 0
-10 -4 -10 -10z"/>
</g>
</svg>
